<?xml version="1.0" encoding="UTF-8"?>
<svg width="231px" height="76px" viewBox="0 0 231 76" version="1.1" xmlns="http://www.w3.org/2000/svg" xmlns:xlink="http://www.w3.org/1999/xlink">
    <!-- Generator: Sketch 40.1 (33804) - http://www.bohemiancoding.com/sketch -->
    <title>Camera Controls Bar</title>
    <desc>Created with Sketch.</desc>
    <defs>
        <linearGradient x1="0%" y1="50%" x2="100%" y2="50%" id="linearGradient-1">
            <stop stop-color="#000000" offset="2%"></stop>
            <stop stop-color="#303030" offset="4.27%"></stop>
            <stop stop-color="#5B5B5B" offset="6.7%"></stop>
            <stop stop-color="#828282" offset="9.4%"></stop>
            <stop stop-color="#A4A4A4" offset="12.3%"></stop>
            <stop stop-color="#C0C0C0" offset="15.48%"></stop>
            <stop stop-color="#D8D8D8" offset="19.02%"></stop>
            <stop stop-color="#E9E9E9" offset="23.07%"></stop>
            <stop stop-color="#F6F6F6" offset="27.96%"></stop>
            <stop stop-color="#FDFDFD" offset="34.53%"></stop>
            <stop stop-color="#FFFFFF" offset="50%"></stop>
            <stop stop-color="#FDFDFD" offset="65.47%"></stop>
            <stop stop-color="#F6F6F6" offset="72.04%"></stop>
            <stop stop-color="#E9E9E9" offset="76.93%"></stop>
            <stop stop-color="#D8D8D8" offset="80.98%"></stop>
            <stop stop-color="#C0C0C0" offset="84.52%"></stop>
            <stop stop-color="#A4A4A4" offset="87.7%"></stop>
            <stop stop-color="#828282" offset="90.6%"></stop>
            <stop stop-color="#5B5B5B" offset="93.3%"></stop>
            <stop stop-color="#303030" offset="95.73%"></stop>
            <stop stop-color="#000000" offset="98%"></stop>
        </linearGradient>
    </defs>
    <g id="Page-1" stroke="none" stroke-width="1" fill="none" fill-rule="evenodd">
        <g id="главная" transform="translate(-289.000000, -538.000000)">
            <g id="как-это-работает">
                <g id="Group-8" transform="translate(257.000000, 145.000000)">
                    <g id="iphone-gold">
                        <g id="screen" transform="translate(32.524641, 59.558314)">
                            <g id="Group" transform="translate(0.000000, -0.000000)">
                                <g id="Camera-Controls-Bar" transform="translate(0.000000, 333.800059)">
                                    <rect id="Camera-Controls-Bar-Background" fill="#000000" x="0.306199365" y="0" width="229.649524" height="75.473175"></rect>
                                    <g id="Filter-Button" transform="translate(198.110989, 37.429786)" fill="#FFFFFF">
                                        <ellipse id="Oval" opacity="0.8" cx="15.7692673" cy="14.1128701" rx="6.58328635" ry="6.59623278"></ellipse>
                                        <ellipse id="Oval" opacity="0.3" cx="6.58328635" cy="14.1128701" rx="6.58328635" ry="6.59623278"></ellipse>
                                        <ellipse id="Oval" opacity="0.5" cx="11.1762768" cy="6.74963354" rx="6.58328635" ry="6.59623278"></ellipse>
                                    </g>
                                    <path d="M115.437161,61.3603049 C123.892623,61.3603049 130.747129,54.4923188 130.747129,46.0202287 C130.747129,37.5481385 123.892623,30.6801524 115.437161,30.6801524 C106.981699,30.6801524 100.127192,37.5481385 100.127192,46.0202287 C100.127192,54.4923188 106.981699,61.3603049 115.437161,61.3603049 Z M115.437161,25.7713281 C104.275888,25.7713281 95.2280025,34.8370063 95.2280025,46.0202287 C95.2280025,57.203451 104.275888,66.2691293 115.437161,66.2691293 C126.598434,66.2691293 135.646319,57.203451 135.646319,46.0202287 C135.646319,34.8370063 126.598434,25.7713281 115.437161,25.7713281 L115.437161,25.7713281 Z M115.437161,62.8943125 C106.136049,62.8943125 98.5961955,55.339325 98.5961955,46.0202287 C98.5961955,36.7008256 106.136049,29.1461448 115.437161,29.1461448 C124.738272,29.1461448 132.278126,36.7008256 132.278126,46.0202287 C132.278126,55.339325 124.738272,62.8943125 115.437161,62.8943125 L115.437161,62.8943125 Z" id="Photo-Camera-Button---Inactive" fill="#FFFFFF"></path>
                                    <path d="M37.6625219,61.9739079 L10.104579,61.9739079 C9.76653494,61.9739079 9.49218031,61.6990138 9.49218031,61.3603049 L9.49218031,33.7481677 C9.49218031,33.4094588 9.76653494,33.1345646 10.104579,33.1345646 L37.6625219,33.1345646 C38.000566,33.1345646 38.2749206,33.4094588 38.2749206,33.7481677 L38.2749206,61.3603049 C38.2749206,61.6990138 38.000566,61.9739079 37.6625219,61.9739079 L37.6625219,61.9739079 Z" id="Photos-Button-Placeholder" fill="#5C5C5C"></path>
                                    <g id="Camera-Modes-Group" transform="translate(0.224138, 8.897244)">
                                        <g id="Camera-Modes" transform="translate(3.144055, 1.227206)">
                                            <path d="M203.163279,0.624985386 C202.43973,0.624985386 201.88704,1.25822373 201.88704,2.57133426 L201.88704,3.43099213 C201.88704,4.74410265 202.43973,5.377341 203.163279,5.377341 C203.883766,5.377341 204.439518,4.74410265 204.439518,3.43099213 L204.439518,2.57133426 C204.439518,1.25822373 203.883766,0.624985386 203.163279,0.624985386 M203.163279,5.98572842 C202.071372,5.98572842 201.354253,5.0545858 201.354253,3.43099213 L201.354253,2.57133426 C201.354253,0.943752169 202.071372,0.016904764 203.163279,0.016904764 C204.255186,0.016904764 204.972304,0.943752169 204.972304,2.57133426 L204.972304,3.43099213 C204.972304,5.0545858 204.255186,5.98572842 203.163279,5.98572842 Z M196.602712,5.86398958 L196.602712,0.138459528 L197.161832,0.138459528 L199.617551,4.71900629 L199.645722,4.71900629 L199.645722,0.138459528 L200.205454,0.138459528 L200.205454,5.86398958 L199.645722,5.86398958 L197.186328,1.28344282 L197.161832,1.28344282 L197.161832,5.86398958 L196.602712,5.86398958 Z M191.439946,5.86408162 L193.28541,0.138551568 L193.869026,0.138551568 L195.714183,5.86408162 L195.085556,5.86408162 L194.550932,4.10242726 L192.603504,4.10242726 L192.06888,5.86408162 L191.439946,5.86408162 Z M193.564051,0.964768074 L192.773138,3.55294573 L194.381297,3.55294573 L193.58671,0.964768074 L193.564051,0.964768074 Z M190.913038,1.90020592 C190.913038,2.95284195 190.232357,3.66186028 189.22098,3.66186028 L187.923001,3.66186028 L187.923001,5.86408162 L187.297742,5.86408162 L187.297742,0.138551568 L189.22098,0.138551568 C190.232357,0.138551568 190.913038,0.84726309 190.913038,1.90020592 L190.913038,1.90020592 Z M189.197709,0.74663219 L187.923001,0.74663219 L187.923001,3.05377965 L189.197709,3.05377965 C189.87839,3.05377965 190.26757,2.63008675 190.26757,1.90020592 C190.26757,1.1703251 189.87839,0.74663219 189.197709,0.74663219 L189.197709,0.74663219 Z" id="PANO" fill="#FFFFFF"></path>
                                            <path d="M172.726357,5.86398958 L169.339486,5.86398958 L169.339486,0.138459528 L172.726357,0.138459528 L172.726357,0.74654015 L170.005164,0.74654015 L170.005164,2.63428993 L172.575707,2.63428993 L172.575707,3.23807533 L170.005164,3.23807533 L170.005164,5.25590896 L172.726357,5.25590896 L172.726357,5.86398958 Z M165.639496,2.95296467 C166.447556,2.95296467 166.878684,2.57958722 166.878684,1.87486412 C166.878684,1.15756215 166.438982,0.746754911 165.672871,0.746754911 L164.392039,0.746754911 L164.392039,2.95296467 L165.639496,2.95296467 Z M167.565183,1.82884389 C167.565183,2.59216608 167.16743,3.18367942 166.497772,3.42267781 L167.665617,5.86389754 L166.899506,5.86389754 L165.836382,3.56104529 L164.392039,3.56104529 L164.392039,5.86389754 L163.726362,5.86389754 L163.726362,0.138367488 L165.75677,0.138367488 C166.857863,0.138367488 167.565183,0.80105878 167.565183,1.82884389 L167.565183,1.82884389 Z M157.593372,5.86408162 L159.644602,0.138551568 L160.293438,0.138551568 L162.344974,5.86408162 L161.645615,5.86408162 L161.051282,4.10242726 L158.887065,4.10242726 L158.292426,5.86408162 L157.593372,5.86408162 Z M159.954476,0.964768074 L159.075377,3.55294573 L160.862969,3.55294573 L159.979584,0.964768074 L159.954476,0.964768074 Z M155.613855,3.88837184 L155.613855,0.138336807 L156.279532,0.138336807 L156.279532,3.88837184 C156.279532,5.14257647 155.421255,5.98566706 154.136137,5.98566706 C152.851018,5.98566706 151.992741,5.14257647 151.992741,3.88837184 L151.992741,0.138336807 L152.658419,0.138336807 L152.658419,3.88837184 C152.658419,4.80264038 153.23193,5.37758644 154.136137,5.37758644 C155.040343,5.37758644 155.613855,4.80264038 155.613855,3.88837184 Z M149.606805,6.52241633 L149.062689,5.77995664 C148.761082,5.91863093 148.42212,5.98551366 148.049475,5.98551366 C146.647082,5.98551366 145.788805,5.01264603 145.788805,3.43108417 L145.788805,2.5714263 C145.788805,0.985876019 146.647082,0.0166900029 148.049475,0.0166900029 C149.451868,0.0166900029 150.310145,0.985876019 150.310145,2.5714263 L150.310145,3.43108417 C150.310145,4.28675362 150.058755,4.98319308 149.581697,5.42774849 L150.377203,6.52241633 L149.606805,6.52241633 Z M148.049475,5.37743304 C148.279737,5.37743304 148.489177,5.33969645 148.67749,5.25992806 L147.877697,4.16924864 L148.664936,4.16924864 L149.188231,4.89084582 C149.489531,4.55121653 149.644468,4.05205045 149.644468,3.43108417 L149.644468,2.5714263 C149.644468,1.36753712 149.03758,0.625077426 148.049475,0.625077426 C147.057389,0.625077426 146.454483,1.36324189 146.454483,2.5714263 L146.454483,3.43108417 C146.454483,4.63926857 147.057389,5.37743304 148.049475,5.37743304 Z M140.878623,4.33298861 C140.94568,4.97052218 141.506638,5.377341 142.322965,5.377341 C143.14756,5.377341 143.666568,4.9748174 143.666568,4.33298861 C143.666568,3.85468503 143.377822,3.56966642 142.724699,3.39755076 L141.699237,3.12480421 C140.853514,2.89838468 140.380436,2.36577724 140.380436,1.63589641 C140.380436,0.687879698 141.201051,3.06801525e-05 142.335519,3.06801525e-05 C143.469988,3.06801525e-05 144.269475,0.662721973 144.290602,1.61902232 L143.620638,1.61902232 C143.562154,0.9900792 143.067948,0.608111302 142.318678,0.608111302 C141.569409,0.608111302 141.058668,1.01523692 141.058668,1.61073868 C141.058668,2.03013637 141.339147,2.32804065 141.866728,2.46640814 L142.871368,2.73915469 C143.892849,3.01588967 144.349086,3.49419324 144.349086,4.28696838 C144.349086,5.31874191 143.520205,5.98572842 142.239067,5.98572842 C141.054381,5.98572842 140.238054,5.32303713 140.204678,4.33298861 L140.878623,4.33298861 Z" id="SQUARE" fill="#FFFFFF"></path>
                                            <path d="M122.639429,0.624985386 C121.735222,0.624985386 121.044436,1.25822373 121.044436,2.57133426 L121.044436,3.43099213 C121.044436,4.74410265 121.735222,5.377341 122.639429,5.377341 C123.539349,5.377341 124.234421,4.74410265 124.234421,3.43099213 L124.234421,2.57133426 C124.234421,1.25822373 123.539349,0.624985386 122.639429,0.624985386 M122.639429,5.98572842 C121.274698,5.98572842 120.378759,5.0545858 120.378759,3.43099213 L120.378759,2.57133426 C120.378759,0.943752169 121.274698,0.016904764 122.639429,0.016904764 C124.00416,0.016904764 124.900099,0.943752169 124.900099,2.57133426 L124.900099,3.43099213 C124.900099,5.0545858 124.00416,5.98572842 122.639429,5.98572842 Z M117.03843,5.86398958 L117.03843,0.74255173 L115.288501,0.74255173 L115.288501,0.138459528 L119.454037,0.138459528 L119.454037,0.74255173 L117.704108,0.74255173 L117.704108,5.86398958 L117.03843,5.86398958 Z M112.103048,5.98572842 C110.738317,5.98572842 109.842378,5.0545858 109.842378,3.43099213 L109.842378,2.57133426 C109.842378,0.943752169 110.738317,0.016904764 112.103048,0.016904764 C113.467778,0.016904764 114.363717,0.943752169 114.363717,2.57133426 L114.363717,3.43099213 C114.363717,5.0545858 113.467778,5.98572842 112.103048,5.98572842 M112.103048,0.624985386 C111.198841,0.624985386 110.508055,1.25822373 110.508055,2.57133426 L110.508055,3.43099213 C110.508055,4.74410265 111.198841,5.377341 112.103048,5.377341 C113.002967,5.377341 113.69804,4.74410265 113.69804,3.43099213 L113.69804,2.57133426 C113.69804,1.25822373 113.002967,0.624985386 112.103048,0.624985386 Z M107.435896,5.86398958 L107.435896,3.19635032 L104.480459,3.19635032 L104.480459,5.86398958 L103.814782,5.86398958 L103.814782,0.138459528 L104.480459,0.138459528 L104.480459,2.59225812 L107.435896,2.59225812 L107.435896,0.138459528 L108.101573,0.138459528 L108.101573,5.86398958 L107.435896,5.86398958 Z M102.316058,1.90020592 C102.316058,2.95284195 101.591897,3.66186028 100.515912,3.66186028 L99.1343409,3.66186028 L99.1343409,5.86408162 L98.4686635,5.86408162 L98.4686635,0.138551568 L100.515912,0.138551568 C101.591897,0.138551568 102.316058,0.84726309 102.316058,1.90020592 M100.490804,0.74663219 L99.1343409,0.74663219 L99.1343409,3.05377965 L100.490804,3.05377965 C101.214966,3.05377965 101.62956,2.63008675 101.62956,1.90020592 C101.62956,1.1703251 101.214966,0.74663219 100.490804,0.74663219" id="PHOTO" fill="#FECD13"></path>
                                            <path d="M80.4831864,0.624985386 C79.5789797,0.624985386 78.8881939,1.25822373 78.8881939,2.57133426 L78.8881939,3.43099213 C78.8881939,4.74410265 79.5789797,5.377341 80.4831864,5.377341 C81.3831063,5.377341 82.0781789,4.74410265 82.0781789,3.43099213 L82.0781789,2.57133426 C82.0781789,1.25822373 81.3831063,0.624985386 80.4831864,0.624985386 M80.4831864,5.98572842 C79.1184558,5.98572842 78.2225165,5.0545858 78.2225165,3.43099213 L78.2225165,2.57133426 C78.2225165,0.943752169 79.1184558,0.016904764 80.4831864,0.016904764 C81.847917,0.016904764 82.7438563,0.943752169 82.7438563,2.57133426 L82.7438563,3.43099213 C82.7438563,5.0545858 81.847917,5.98572842 80.4831864,5.98572842 Z M76.6906929,5.86398958 L73.3038218,5.86398958 L73.3038218,0.138459528 L76.6906929,0.138459528 L76.6906929,0.74654015 L73.9694992,0.74654015 L73.9694992,2.63428993 L76.5400428,2.63428993 L76.5400428,3.23807533 L73.9694992,3.23807533 L73.9694992,5.25590896 L76.6906929,5.25590896 L76.6906929,5.86398958 Z M69.1473185,0.138336807 C70.7965083,0.138336807 71.6508045,1.11580646 71.6508045,3.00324944 C71.6508045,4.886704 70.7965083,5.86386686 69.1473185,5.86386686 L67.3554398,5.86386686 L67.3554398,0.138336807 L69.1473185,0.138336807 Z M68.0211172,5.25578624 L69.1222101,5.25578624 C70.3528254,5.25578624 70.9600187,4.50903133 70.9600187,3.00324944 C70.9600187,1.49317234 70.3488448,0.742429009 69.1222101,0.742429009 L68.0211172,0.742429009 L68.0211172,5.25578624 Z M64.7228908,5.86383618 L65.3885682,5.86383618 L65.3885682,0.138306127 L64.7228908,0.138306127 L64.7228908,5.86383618 Z M58.5522693,0.138428848 L59.3101127,0.138428848 L60.9467483,5.05430967 L60.9844109,5.05430967 L62.6213527,0.138428848 L63.3791961,0.138428848 L61.2899978,5.8639589 L60.6411614,5.8639589 L58.5522693,0.138428848 Z" id="VIDEO" fill="#FFFFFF"></path>
                                            <path d="M42.5491575,0.624985386 C41.7799847,0.624985386 41.1926944,1.25822373 41.1926944,2.57133426 L41.1926944,3.43099213 C41.1926944,4.74410265 41.7799847,5.377341 42.5491575,5.377341 C43.314656,5.377341 43.9056207,4.74410265 43.9056207,3.43099213 L43.9056207,2.57133426 C43.9056207,1.25822373 43.314656,0.624985386 42.5491575,0.624985386 M42.5491575,5.98572842 C41.388662,5.98572842 40.6268379,5.0545858 40.6268379,3.43099213 L40.6268379,2.57133426 C40.6268379,0.943752169 41.388662,0.016904764 42.5491575,0.016904764 C43.7099593,0.016904764 44.4717834,0.943752169 44.4717834,2.57133426 L44.4717834,3.43099213 C44.4717834,5.0545858 43.7099593,5.98572842 42.5491575,5.98572842 Z M34.7416555,5.86398958 L34.7416555,0.138459528 L35.286078,0.138459528 L36.9276128,4.72299471 L36.9487405,4.72299471 L38.5866009,0.138459528 L39.1313296,0.138459528 L39.1313296,5.86398958 L38.6150775,5.86398958 L38.6150775,1.59822118 L38.5829266,1.59822118 L37.1909442,5.42342259 L36.6817347,5.42342259 L35.286078,1.59822118 L35.2579077,1.59822118 L35.2579077,5.86398958 L34.7416555,5.86398958 Z M31.2972495,3.80857276 L33.4078817,3.80857276 L33.4078817,3.22135465 L31.2972495,3.22135465 L31.2972495,3.80857276 Z M28.5530908,5.98572842 C27.5297725,5.98572842 26.8576649,5.0545858 26.8576649,3.43099213 L26.8576649,2.57133426 C26.8576649,0.943752169 27.5297725,0.016904764 28.5530908,0.016904764 C29.5770215,0.016904764 30.2485167,0.943752169 30.2485167,2.57133426 L30.2485167,3.43099213 C30.2485167,5.0545858 29.5770215,5.98572842 28.5530908,5.98572842 M28.5530908,0.624985386 C27.8748592,0.624985386 27.3570761,1.25822373 27.3570761,2.57133426 L27.3570761,3.43099213 C27.3570761,4.74410265 27.8748592,5.377341 28.5530908,5.377341 C29.2282604,5.377341 29.7494117,4.74410265 29.7494117,3.43099213 L29.7494117,2.57133426 C29.7494117,1.25822373 29.2282604,0.624985386 28.5530908,0.624985386 Z M26.1357999,5.86398958 L23.6366007,5.86398958 L23.6366007,0.138459528 L24.1360118,0.138459528 L24.1360118,5.25590896 L26.1357999,5.25590896 L26.1357999,5.86398958 Z M20.0004526,4.33298861 C20.0469949,4.97052218 20.4401549,5.377341 21.0112167,5.377341 C21.5884025,5.377341 21.9512488,4.9748174 21.9512488,4.33298861 C21.9512488,3.85468503 21.7491572,3.56966642 21.2923077,3.39755076 L20.5745764,3.12480421 C19.982693,2.89838468 19.6516915,2.36577724 19.6516915,1.63589641 C19.6516915,0.687879698 20.2258153,3.06801525e-05 21.0197903,3.06801525e-05 C21.8137652,3.06801525e-05 22.3734977,0.662721973 22.387889,1.61902232 L21.919404,1.61902232 C21.8783733,0.9900792 21.5326742,0.608111302 21.0081547,0.608111302 C20.4836352,0.608111302 20.1263005,1.01523692 20.1263005,1.61073868 C20.1263005,2.03013637 20.3228805,2.32804065 20.6918508,2.46640814 L21.3948845,2.73915469 C22.10986,3.01588967 22.429226,3.49419324 22.429226,4.28696838 C22.429226,5.31874191 21.8489782,5.98572842 20.9524264,5.98572842 C20.1235447,5.98572842 19.5521767,5.32303713 19.5285994,4.33298861 L20.0004526,4.33298861 Z" id="SLO-MO" fill="#FFFFFF"></path>
                                            <path d="M10.0603332,5.86398958 L8.1971101,5.86398958 L8.1971101,0.138459528 L10.0603332,0.138459528 L10.0603332,0.74654015 L8.56332454,0.74654015 L8.56332454,2.63428993 L9.97765941,2.63428993 L9.97765941,3.23807533 L8.56332454,3.23807533 L8.56332454,5.25590896 L10.0603332,5.25590896 L10.0603332,5.86398958 Z M5.58813841,4.33298861 C5.62151414,4.97052218 5.90199276,5.377341 6.31015651,5.377341 C6.72260706,5.377341 6.98226412,4.9748174 6.98226412,4.33298861 C6.98226412,3.85468503 6.83773802,3.56966642 6.51132949,3.39755076 L5.99844556,3.12480421 C5.57558424,2.89838468 5.33919833,2.36577724 5.33919833,1.63589641 C5.33919833,0.687879698 5.74919928,3.06801525e-05 6.3165867,3.06801525e-05 C6.88366792,3.06801525e-05 7.28356429,0.662721973 7.29397507,1.61902232 L6.95929917,1.61902232 C6.92990403,0.9900792 6.68280114,0.608111302 6.30831932,0.608111302 C5.93353129,0.608111302 5.67816102,1.01523692 5.67816102,1.61073868 C5.67816102,2.03013637 5.81840033,2.32804065 6.08203799,2.46640814 L6.58451114,2.73915469 C7.09525168,3.01588967 7.32337021,3.49419324 7.32337021,4.28696838 C7.32337021,5.31874191 6.90877627,5.98572842 6.2685134,5.98572842 C5.67601763,5.98572842 5.26785387,5.32303713 5.25101291,4.33298861 L5.58813841,4.33298861 Z M3.81135535,0.74663219 L3.13312376,0.74663219 L3.13312376,3.05377965 L3.81135535,3.05377965 C4.173283,3.05377965 4.38057997,2.63008675 4.38057997,1.90020592 C4.38057997,1.1703251 4.173283,0.74663219 3.81135535,0.74663219 M4.72382946,1.90020592 C4.72382946,2.95284195 4.36159561,3.66186028 3.82390953,3.66186028 L3.13312376,3.66186028 L3.13312376,5.86408162 L2.79997885,5.86408162 L2.79997885,0.138551568 L3.82390953,0.138551568 C4.36159561,0.138551568 4.72382946,0.84726309 4.72382946,1.90020592 M-6.12398735e-05,5.86408162 L0.922517447,0.138551568 L1.21432544,0.138551568 L2.13690413,5.86408162 L1.82243738,5.86408162 L1.55481914,4.10242726 L0.582023753,4.10242726 L0.314405508,5.86408162 L-6.12398735e-05,5.86408162 Z M1.06183816,0.964768074 L0.666228578,3.55294573 L1.47061431,3.55294573 L1.07286133,0.964768074 L1.06183816,0.964768074 Z" id="TIME-LAPSE" fill="#FFFFFF"></path>
                                        </g>
                                        <rect id="Shadow-Overlay" fill="url(#linearGradient-1)" style="mix-blend-mode: multiply;" x="0.0820614298" y="0" width="229.649524" height="8.59044269"></rect>
                                    </g>
                                </g>
                            </g>
                        </g>
                    </g>
                </g>
            </g>
        </g>
    </g>
</svg>