<?xml version="1.0" encoding="UTF-8"?>
<svg width="231px" height="308px" viewBox="0 0 231 308" version="1.1" xmlns="http://www.w3.org/2000/svg" xmlns:xlink="http://www.w3.org/1999/xlink">
    <!-- Generator: Sketch 40.1 (33804) - http://www.bohemiancoding.com/sketch -->
    <title>controls</title>
    <desc>Created with Sketch.</desc>
    <defs></defs>
    <g id="Page-1" stroke="none" stroke-width="1" fill="none" fill-rule="evenodd">
        <g id="главная" transform="translate(-289.000000, -231.000000)">
            <g id="как-это-работает">
                <g id="Group-8" transform="translate(257.000000, 145.000000)">
                    <g id="iphone-gold">
                        <g id="screen" transform="translate(32.524641, 59.558314)">
                            <g id="Group" transform="translate(0.000000, -0.000000)">
                                <g id="controls" transform="translate(0.000000, 26.000000)">
                                    <g id="Photo-Composition-Grid" transform="translate(0.306199, 0.998534)">
                                        <polygon id="Shape" fill="#000000" opacity="0.2" points="75.9374425 101.858106 0 101.858106 0 102.471709 75.3250438 102.471709 75.3250438 203.102609 0 203.102609 0 203.716212 75.9374425 203.716212"></polygon>
                                        <polygon id="Shape" fill="#000000" opacity="0.2" points="75.9374425 0 75.3250438 0 75.3250438 100.6309 0 100.6309 0 101.244503 75.9374425 101.244503"></polygon>
                                        <path d="M153.099682,101.858106 L76.5498412,101.858106 L76.5498412,203.716212 L153.099682,203.716212 L153.099682,101.858106 L153.099682,101.858106 Z M152.487284,203.102609 L77.16224,203.102609 L77.16224,102.471709 L152.487284,102.471709 L152.487284,203.102609 L152.487284,203.102609 Z" id="Shape" fill="#000000" opacity="0.2"></path>
                                        <polygon id="Shape" fill="#000000" opacity="0.2" points="153.099682 101.244503 153.099682 0 152.487284 0 152.487284 100.6309 77.16224 100.6309 77.16224 0 76.5498412 0 76.5498412 101.244503"></polygon>
                                        <polygon id="Shape" fill="#000000" opacity="0.2" points="154.32448 100.6309 154.32448 0 153.712081 0 153.712081 101.244503 229.649524 101.244503 229.649524 100.6309"></polygon>
                                        <polygon id="Shape" fill="#000000" opacity="0.2" points="0 204.329815 0 204.943418 75.3250438 204.943418 75.3250438 306.801524 75.9374425 306.801524 75.9374425 204.329815"></polygon>
                                        <polygon id="Shape" fill="#000000" opacity="0.2" points="153.712081 203.716212 229.649524 203.716212 229.649524 203.102609 154.32448 203.102609 154.32448 102.471709 229.649524 102.471709 229.649524 101.858106 153.712081 101.858106"></polygon>
                                        <polygon id="Shape" fill="#000000" opacity="0.2" points="76.5498412 204.329815 76.5498412 306.801524 77.16224 306.801524 77.16224 204.943418 152.487284 204.943418 152.487284 306.801524 153.099682 306.801524 153.099682 204.329815"></polygon>
                                        <polygon id="Shape" fill="#000000" opacity="0.2" points="153.712081 306.801524 154.32448 306.801524 154.32448 204.943418 229.649524 204.943418 229.649524 204.329815 153.712081 204.329815"></polygon>
                                        <path d="M229.649524,101.858106 L229.649524,101.244503 L153.712081,101.244503 L153.712081,0 L153.099682,0 L153.099682,101.244503 L76.5498412,101.244503 L76.5498412,0 L75.9374425,0 L75.9374425,101.244503 L0,101.244503 L0,101.858106 L75.9374425,101.858106 L75.9374425,203.716212 L0,203.716212 L0,204.329815 L75.9374425,204.329815 L75.9374425,306.801524 L76.5498412,306.801524 L76.5498412,204.329815 L153.099682,204.329815 L153.099682,306.801524 L153.712081,306.801524 L153.712081,204.329815 L229.649524,204.329815 L229.649524,203.716212 L153.712081,203.716212 L153.712081,101.858106 L229.649524,101.858106 L229.649524,101.858106 Z M153.099682,203.716212 L76.5498412,203.716212 L76.5498412,101.858106 L153.099682,101.858106 L153.099682,203.716212 L153.099682,203.716212 Z" id="Shape" fill="#FFFFFF" opacity="0.35"></path>
                                    </g>
                                    <g id="Camera-Zoom-Slider-Bar" transform="translate(6.430187, 293.687189)">
                                        <path d="M216.94225,3.37481677 L214.951954,3.37481677 L214.951954,1.38060686 C214.951954,1.1262684 214.746188,0.920404573 214.492655,0.920404573 L214.492655,0.920404573 C214.239122,0.920404573 214.033356,1.1262684 214.033356,1.38060686 L214.033356,3.37481677 L212.04306,3.37481677 C211.789527,3.37481677 211.583761,3.58068059 211.583761,3.83501906 L211.583761,3.83501906 C211.583761,4.08935752 211.789527,4.29522134 212.04306,4.29522134 L214.033356,4.29522134 L214.033356,6.28943125 C214.033356,6.54376972 214.239122,6.74963354 214.492655,6.74963354 L214.492655,6.74963354 C214.746188,6.74963354 214.951954,6.54376972 214.951954,6.28943125 L214.951954,4.29522134 L216.94225,4.29522134 C217.195783,4.29522134 217.401549,4.08935752 217.401549,3.83501906 L217.401549,3.83501906 C217.401549,3.58068059 217.195783,3.37481677 216.94225,3.37481677 L216.94225,3.37481677 Z" id="Plus-Icon" fill="#FFFFFF"></path>
                                        <g id="Slider-Bar" transform="translate(13.778971, 3.374817)" fill="#FFFFFF">
                                            <path d="M111.762768,0.920404573 L0.459299047,0.920404573 C0.205765973,0.920404573 0,0.714540751 0,0.460202287 L0,0.460202287 C0,0.205863823 0.205765973,0 0.459299047,0 L111.762768,0 L111.762768,0.920404573 L111.762768,0.920404573 Z" id="Shape"></path>
                                            <path d="M189.384307,0.920404573 L119.417752,0.920404573 L119.417752,0 L189.384307,0 C189.63784,0 189.843606,0.205863823 189.843606,0.460202287 L189.843606,0.460202287 C189.843606,0.714540751 189.63784,0.920404573 189.384307,0.920404573 L189.384307,0.920404573 Z" id="Shape"></path>
                                        </g>
                                        <path d="M129.369232,0.767003811 C131.057615,0.767003811 132.431225,2.14331545 132.431225,3.83501906 C132.431225,5.52672266 131.057615,6.9030343 129.369232,6.9030343 C127.680848,6.9030343 126.307238,5.52672266 126.307238,3.83501906 C126.307238,2.14331545 127.680848,0.767003811 129.369232,0.767003811 L129.369232,0.767003811 Z M129.369232,1.13686838e-13 C127.255537,1.13686838e-13 125.54174,1.71716813 125.54174,3.83501906 C125.54174,5.95317678 127.255537,7.67003811 129.369232,7.67003811 C131.482926,7.67003811 133.196724,5.95317678 133.196724,3.83501906 C133.196724,1.71716813 131.482926,1.13686838e-13 129.369232,1.13686838e-13 L129.369232,1.13686838e-13 L129.369232,1.13686838e-13 Z" id="Camera-Zoom-Knob" fill="#FFCC00"></path>
                                        <path d="M5.35848889,4.29522134 L0.459299047,4.29522134 C0.205765973,4.29522134 0,4.08935752 0,3.83501906 L0,3.83501906 C0,3.58068059 0.205765973,3.37481677 0.459299047,3.37481677 L5.35848889,3.37481677 C5.61202196,3.37481677 5.81778793,3.58068059 5.81778793,3.83501906 L5.81778793,3.83501906 C5.81778793,4.08935752 5.61202196,4.29522134 5.35848889,4.29522134 L5.35848889,4.29522134 Z" id="Minus-Icon" fill="#FFFFFF"></path>
                                    </g>
                                    <path d="M126.154138,274.972296 L104.107784,274.972296 C103.43139,274.972296 102.882987,275.521777 102.882987,276.199502 L102.882987,286.630753 C102.882987,287.308478 103.43139,287.85796 104.107784,287.85796 L126.154138,287.85796 C126.830533,287.85796 127.378936,287.308478 127.378936,286.630753 L127.378936,276.199502 C127.378936,275.521777 126.830533,274.972296 126.154138,274.972296 L126.154138,274.972296 Z M113.753064,285.710349 L114.824762,281.721929 L112.528267,281.721929 L116.355759,277.119906 L115.437161,280.494723 L117.733656,280.494723 L113.753064,285.710349 L113.753064,285.710349 Z" id="Flash-On-Indicator" fill="#FECD14"></path>
                                    <g id="Brightness-Adjustment-Indicator" transform="translate(88.491616, 103.777045)" fill="#FECD14">
                                        <path d="M56.9530819,87.745236 L56.3406831,87.745236 L56.3406831,55.8378775 L56.9530819,55.8378775 L56.9530819,87.745236 L56.9530819,87.745236 Z M56.9530819,0 L56.3406831,0 L56.3406831,36.8161829 L56.9530819,36.8161829 L56.9530819,0 L56.9530819,0 Z" id="Brightness-Adjustment-Slider-Bar"></path>
                                        <path d="M56.9530819,42.0318089 L56.3406831,42.0318089 L56.3406831,38.9637936 L56.9530819,38.9637936 L56.9530819,42.0318089 L56.9530819,42.0318089 Z M56.9530819,50.6222515 L56.3406831,50.6222515 L56.3406831,53.6902668 L56.9530819,53.6902668 L56.9530819,50.6222515 L56.9530819,50.6222515 Z M49.2980978,46.0202287 L49.2980978,46.6338317 L52.3600914,46.6338317 L52.3600914,46.0202287 L49.2980978,46.0202287 L49.2980978,46.0202287 Z M60.9336736,46.0202287 L60.9336736,46.6338317 L63.9956673,46.6338317 L63.9956673,46.0202287 L60.9336736,46.0202287 L60.9336736,46.0202287 Z M56.6468825,43.5658165 C55.1247655,43.5658165 53.8910882,44.8019198 53.8910882,46.3270302 C53.8910882,47.8521406 55.1247655,49.0882439 56.6468825,49.0882439 C58.1689996,49.0882439 59.4026768,47.8521406 59.4026768,46.3270302 C59.4026768,44.8019198 58.1689996,43.5658165 56.6468825,43.5658165 L56.6468825,43.5658165 Z M53.6697061,43.0187894 L53.3448286,43.3443058 L51.2877812,41.2832131 L51.6126588,40.9576967 L53.6697061,43.0187894 L53.6697061,43.0187894 Z M59.9486303,49.3100614 L59.6237527,49.6355778 L61.6808001,51.6966705 L62.0056776,51.3711541 L59.9486303,49.3100614 L59.9486303,49.3100614 Z M51.2880874,51.3708473 L51.6129649,51.6963637 L53.6700123,49.635271 L53.3451348,49.3097546 L51.2880874,51.3708473 L51.2880874,51.3708473 Z M59.6240589,43.0187894 L59.9489365,43.3443058 L62.0059838,41.2832131 L61.6811063,40.9576967 L59.6240589,43.0187894 L59.6240589,43.0187894 Z" id="Brightness-Icon"></path>
                                        <path d="M0,20.8625037 L0,66.8827323 L45.9299047,66.8827323 L45.9299047,20.8625037 L0,20.8625037 L0,20.8625037 Z M23.2711517,66.2691293 L23.2711517,63.201114 L22.658753,63.201114 L22.658753,66.2691293 L0.61239873,66.2691293 L0.61239873,44.1794195 L3.67439238,44.1794195 L3.67439238,43.5658165 L0.61239873,43.5658165 L0.61239873,21.4761067 L22.658753,21.4761067 L22.658753,24.544122 L23.2711517,24.544122 L23.2711517,21.4761067 L45.317506,21.4761067 L45.317506,43.5658165 L42.2555124,43.5658165 L42.2555124,44.1794195 L45.317506,44.1794195 L45.317506,66.2691293 L23.2711517,66.2691293 L23.2711517,66.2691293 Z" id="Auto-Brightness-Frame"></path>
                                    </g>
                                    <g id="AE/AF-Lock-Indicator" transform="translate(86.960620, 10.509381)">
                                        <path d="M54.8096863,0 L1.22479746,0 C0.548403063,0 0,0.54948153 0,1.2272061 L0,11.6584579 C0,12.3361825 0.548403063,12.885664 1.22479746,12.885664 L54.8096863,12.885664 C55.4860807,12.885664 56.0344838,12.3361825 56.0344838,11.6584579 L56.0344838,1.2272061 C56.0344838,0.54948153 55.4860807,0 54.8096863,0 L54.8096863,0 Z" id="Shape" fill="#FECD14"></path>
                                        <text id="AE/AF-LOCK" fill="#000000" font-family=".SFNSDisplay, .SF NS Display" font-size="8" font-weight="normal" letter-spacing="0.368571401">
                                            <tspan x="3.67439238" y="9.2272061">AE/AF LOC</tspan>
                                            <tspan x="44.8938787" y="9.2272061" letter-spacing="0.268051922">K</tspan>
                                        </text>
                                    </g>
                                </g>
                            </g>
                        </g>
                    </g>
                </g>
            </g>
        </g>
    </g>
</svg>