<?xml version="1.0" encoding="UTF-8"?>
<svg width="231px" height="28px" viewBox="0 0 231 28" version="1.1" xmlns="http://www.w3.org/2000/svg" xmlns:xlink="http://www.w3.org/1999/xlink">
    <!-- Generator: Sketch 40.1 (33804) - http://www.bohemiancoding.com/sketch -->
    <title>Photo Toolbar</title>
    <desc>Created with Sketch.</desc>
    <defs></defs>
    <g id="Page-1" stroke="none" stroke-width="1" fill="none" fill-rule="evenodd">
        <g id="главная" transform="translate(-289.000000, -204.000000)">
            <g id="как-это-работает">
                <g id="Group-8" transform="translate(257.000000, 145.000000)">
                    <g id="iphone-gold">
                        <g id="screen" transform="translate(32.524641, 59.558314)">
                            <g id="Group" transform="translate(0.000000, -0.000000)">
                                <g id="Photo-Toolbar" transform="translate(0.306199, 0.000000)">
                                    <rect id="Photo-Toolbar-Background" fill="#000000" x="0" y="0" width="229.649524" height="26.9985342"></rect>
                                    <path d="M217.554649,17.1808854 C216.028551,17.1808854 214.779564,15.9957111 214.661371,14.496372 L215.717453,14.496372 L214.186456,12.5788625 L212.655459,14.496372 L213.741854,14.496372 C213.861578,16.5062288 215.518729,18.1012899 217.554649,18.1012899 C218.556227,18.1012899 219.465333,17.7125724 220.147851,17.0814817 L219.497178,16.4295284 C218.981538,16.8949464 218.301469,17.1808854 217.554649,17.1808854 Z M221.374486,14.1128701 C221.293343,12.066504 219.616901,10.4312518 217.554649,10.4312518 C216.553071,10.4312518 215.643965,10.8199694 214.961446,11.4513669 L215.61212,12.1033201 C216.12776,11.6379022 216.807522,11.3519632 217.554649,11.3519632 C219.106773,11.3519632 220.375357,12.5776353 220.455888,14.1131769 L219.391845,14.1131769 L220.922842,16.0306865 L222.453839,14.1131769 L221.374486,14.1131769 L221.374486,14.1128701 Z M219.359694,7.97683964 C219.666812,7.97683964 219.953415,8.1305472 220.123968,8.38672647 L220.956524,9.71456347 C221.126771,9.97043594 221.993927,10.1244503 222.301045,10.1244503 L224.444441,10.1244503 C224.951813,10.1244503 225.363039,10.5364848 225.363039,11.0448549 L225.363039,18.714893 C225.363039,19.2232631 224.951813,19.6352976 224.444441,19.6352976 L210.35927,19.6352976 C209.851898,19.6352976 209.440672,19.2232631 209.440672,18.714893 L209.440672,11.0448549 C209.440672,10.5364848 209.851898,10.1244503 210.35927,10.1244503 L212.502665,10.1244503 C212.809783,10.1244503 213.67694,9.97074274 213.847187,9.71456347 L214.679743,8.38672647 C214.850296,8.130854 215.136899,7.97683964 215.444017,7.97683964 L219.359694,7.97683964 L219.359694,7.97683964 Z M219.359694,7.36323659 L215.44371,7.36323659 C214.93052,7.36323659 214.454686,7.61880226 214.169921,8.04648358 L213.337365,9.37432058 C213.280412,9.45991821 212.604936,9.51084726 212.502359,9.51084726 L210.358964,9.51084726 C209.514772,9.51084726 208.827967,10.1990031 208.827967,11.0448549 L208.827967,18.714893 C208.827967,19.5607448 209.514772,20.2489006 210.358964,20.2489006 L224.444134,20.2489006 C225.288326,20.2489006 225.975131,19.5607448 225.975131,18.714893 L225.975131,11.0448549 C225.975131,10.1990031 225.288326,9.51084726 224.444134,9.51084726 L222.300739,9.51084726 C222.198162,9.51084726 221.522993,9.4596114 221.466039,9.37432058 L220.633177,8.04648358 C220.348718,7.61880226 219.872578,7.36323659 219.359694,7.36323659 L219.359694,7.36323659 L219.359694,7.36323659 Z" id="Switch-Camera-Button" fill="#FFFFFF"></path>
                                    <path d="M166.878654,6.74963354 C166.827212,6.74963354 166.776689,6.75239475 166.725554,6.75362196 L166.725554,7.05643506 L166.725554,7.37090663 L166.725554,10.4312518 L167.337953,10.4312518 L167.337953,7.3865535 C170.50038,7.62340428 173.002641,10.2711014 173.002641,13.4992671 C173.002641,16.8826743 170.25542,19.6352976 166.878654,19.6352976 C163.501887,19.6352976 160.754667,16.8826743 160.754667,13.4992671 C160.754667,11.83763 161.419732,10.3306209 162.493879,9.22460144 L162.057545,8.78710246 C160.873166,10.0035705 160.142268,11.6655144 160.142268,13.4989603 C160.142268,17.2265988 163.158332,20.2485938 166.878654,20.2485938 C170.598976,20.2485938 173.61504,17.2265988 173.61504,13.4989603 C173.61504,9.77132175 170.598976,6.74963354 166.878654,6.74963354 Z M167.102486,14.2656573 C167.478498,14.1772984 167.864922,13.9435157 167.843488,13.3523091 C167.833383,13.0768014 167.67416,12.8276785 167.447266,12.6718234 L163.510461,9.97104955 L166.134896,13.8809282 C166.347398,14.1972405 166.732291,14.3524821 167.102486,14.2656573 Z" id="Capture-Timer-Button---Off" fill="#FFFFFF"></path>
                                    <g id="Live-Photo-Button---On" transform="translate(108.088376, 5.829229)">
                                        <rect id="Icon-Frame" x="0" y="0" width="15.3099682" height="15.3400762"></rect>
                                        <path d="M7.73153396,15.2633758 C7.9006432,15.2633758 8.03773333,15.1260161 8.03773333,14.9565743 C8.03773333,14.7871325 7.9006432,14.6497728 7.73153396,14.6497728 C7.56242472,14.6497728 7.4253346,14.7871325 7.4253346,14.9565743 C7.4253346,15.1260161 7.56242472,15.2633758 7.73153396,15.2633758 Z M7.69325904,0.69030343 C7.86236828,0.69030343 7.99945841,0.552943709 7.99945841,0.383501906 C7.99945841,0.214060102 7.86236828,0.0767003811 7.69325904,0.0767003811 C7.5241498,0.0767003811 7.38705968,0.214060102 7.38705968,0.383501906 C7.38705968,0.552943709 7.5241498,0.69030343 7.69325904,0.69030343 Z M9.03298249,15.2031398 C9.19952127,15.1737655 9.31066824,15.0146811 9.2812362,14.8478148 C9.25180416,14.6809485 9.09293842,14.5694892 8.92639964,14.5988635 C8.75986086,14.6282377 8.64871389,14.7873222 8.67814593,14.9541884 C8.70757797,15.1210547 8.86644371,15.232514 9.03298249,15.2031398 Z M6.49474959,0.783693262 C6.66128837,0.754318987 6.77243534,0.595234579 6.7430033,0.428368291 C6.71357126,0.261502003 6.55470552,0.150042704 6.38816674,0.179416979 C6.22162796,0.208791254 6.11048099,0.367875662 6.13991303,0.53474195 C6.16934507,0.701608238 6.32821081,0.813067537 6.49474959,0.783693262 Z M10.3008387,14.9437663 C10.4597507,14.885931 10.5415972,14.7099692 10.4836481,14.5507448 C10.425699,14.3915203 10.2498984,14.3093282 10.0909865,14.3671636 C9.93207451,14.4249989 9.85022795,14.6009607 9.90817704,14.7601851 C9.96612614,14.9194096 10.1419268,15.0016017 10.3008387,14.9437663 Z M5.29099604,1.26245661 C5.449908,1.20462125 5.53175456,1.0286595 5.47380547,0.869435036 C5.41585637,0.710210574 5.24005575,0.628018466 5.0811438,0.685853826 C4.92223185,0.743689186 4.84038528,0.919650939 4.89833438,1.0788754 C4.95628348,1.23809986 5.13208409,1.32029197 5.29099604,1.26245661 Z M11.4383649,14.3003387 C11.5848135,14.2157841 11.6348537,14.0282855 11.5501328,13.8815489 C11.4654119,13.7348123 11.278012,13.6844039 11.1315634,13.7689585 C10.9851148,13.8535131 10.9350746,14.0410117 11.0197955,14.1877483 C11.1045164,14.3344849 11.2919163,14.3848934 11.4383649,14.3003387 Z M4.13368447,1.69856307 C4.28013307,1.61400845 4.33017326,1.42650987 4.24545236,1.27977327 C4.16073146,1.13303667 3.97333155,1.08262821 3.82688295,1.16718283 C3.68043434,1.25173745 3.63039416,1.43923604 3.71511506,1.58597264 C3.79983596,1.73270924 3.98723587,1.78311769 4.13368447,1.69856307 Z M12.5426239,13.4540378 C12.6721785,13.3453512 12.6889221,13.1520121 12.5800219,13.0222028 C12.4711216,12.8923934 12.2778158,12.8752699 12.1482612,12.9839565 C12.0187066,13.092643 12.001963,13.2859821 12.1108632,13.4157914 C12.2197635,13.5456008 12.4130693,13.5627243 12.5426239,13.4540378 Z M3.16442839,2.31558745 C3.29398298,2.20690094 3.31072663,2.01356184 3.20182639,1.88375247 C3.09292614,1.75394311 2.8996203,1.73681965 2.77006571,1.84550616 C2.64051113,1.95419266 2.62376747,2.14753177 2.73266772,2.27734114 C2.84156797,2.4071505 3.0348738,2.42427396 3.16442839,2.31558745 Z M13.4096378,12.4934012 C13.5183412,12.3638635 13.5012452,12.1705577 13.3714528,12.0616405 C13.2416603,11.9527233 13.0483213,11.9694395 12.9396178,12.0989772 C12.8309144,12.2285149 12.8480104,12.4218207 12.9778029,12.5307379 C13.1075953,12.6396551 13.3009344,12.6229389 13.4096378,12.4934012 Z M2.54682179,3.15195927 C2.6555252,3.02240468 2.63841546,2.82908511 2.50860609,2.72016792 C2.37879672,2.61125073 2.18544391,2.62798064 2.07674049,2.75753523 C1.96803707,2.88708982 1.98514682,3.08040939 2.11495619,3.18932658 C2.24476555,3.29824378 2.43811837,3.28151386 2.54682179,3.15195927 Z M14.3022322,11.6336248 C14.3867868,11.4871762 14.3363783,11.2997763 14.1896417,11.2150554 C14.0429051,11.1303345 13.8554065,11.1803747 13.7708519,11.3268233 C13.6862973,11.4732719 13.7367058,11.6606718 13.8834424,11.7453927 C14.030179,11.8301136 14.2176775,11.7800734 14.3022322,11.6336248 Z M1.68704124,4.37943591 C1.77159586,4.23298731 1.7211874,4.0455874 1.5744508,3.96086649 C1.4277142,3.87614559 1.24021562,3.92618578 1.155661,4.07263438 C1.07110638,4.21908298 1.12151483,4.40648289 1.26825144,4.49120379 C1.41498804,4.5759247 1.60248662,4.52588451 1.68704124,4.37943591 Z M14.743861,10.1392092 C14.8016963,9.98029729 14.7195042,9.80449667 14.5602798,9.74654758 C14.4010553,9.68859848 14.2250935,9.77044505 14.1672582,9.929357 C14.1094228,10.088269 14.1916149,10.2640696 14.3508394,10.3220187 C14.5100639,10.3799678 14.6860256,10.2981212 14.743861,10.1392092 Z M1.06409337,5.19126793 C1.12192873,5.03235598 1.03973662,4.85655536 0.88051216,4.79860627 C0.721287698,4.74065717 0.545325945,4.82250374 0.487490585,4.98141569 C0.429655225,5.14032764 0.511847332,5.31612826 0.671071795,5.37407735 C0.830296257,5.43202645 1.00625801,5.35017988 1.06409337,5.19126793 Z M15.1972042,8.97707611 C15.2265784,8.81053733 15.1151191,8.6516716 14.9482529,8.62223955 C14.7813866,8.59280751 14.6223022,8.70395449 14.5929279,8.87049326 C14.5635536,9.03703204 14.6750129,9.19589778 14.8418792,9.22532982 C15.0087455,9.25476187 15.1678299,9.14361489 15.1972042,8.97707611 Z M0.806002761,6.43571207 C0.835377036,6.26917329 0.723917737,6.11030755 0.557051449,6.08087551 C0.390185162,6.05144347 0.231100753,6.16259044 0.201726478,6.32912922 C0.172352203,6.495668 0.283811502,6.65453374 0.45067779,6.68396578 C0.617544078,6.71339782 0.776628486,6.60225085 0.806002761,6.43571207 Z M14.9847845,7.95781794 C15.1538938,7.95781794 15.2909839,7.82045822 15.2909839,7.65101642 C15.2909839,7.48157461 15.1538938,7.34421489 14.9847845,7.34421489 C14.8156753,7.34421489 14.6785852,7.48157461 14.6785852,7.65101642 C14.6785852,7.82045822 14.8156753,7.95781794 14.9847845,7.95781794 Z M0.440314687,7.99586133 C0.609423926,7.99586133 0.746514052,7.85850161 0.746514052,7.68905981 C0.746514052,7.519618 0.609423926,7.38225828 0.440314687,7.38225828 C0.271205447,7.38225828 0.134115322,7.519618 0.134115322,7.68905981 C0.134115322,7.85850161 0.271205447,7.99586133 0.440314687,7.99586133 Z M14.8864834,6.61223039 C15.0530222,6.58287303 15.1641829,6.42380233 15.1347678,6.25693604 C15.1053527,6.09006975 14.9465007,5.97859674 14.7799619,6.00795411 C14.6134232,6.03731147 14.5022625,6.19638217 14.5316776,6.36324846 C14.5610927,6.53011475 14.7199447,6.64158775 14.8864834,6.61223039 Z M0.605765775,9.27754796 C0.772304555,9.24817368 0.883451526,9.08908927 0.854019485,8.92222298 C0.824587444,8.7553567 0.665721705,8.6438974 0.499182926,8.67327167 C0.332644147,8.70264595 0.221497175,8.86173036 0.250929216,9.02859664 C0.280361257,9.19546293 0.439226996,9.30692223 0.605765775,9.27754796 Z M14.509092,5.49840335 C14.6680039,5.4405849 14.7498642,5.26463685 14.6919321,5.10541239 C14.6339999,4.94618793 14.458213,4.86398211 14.2993011,4.92180056 C14.1403891,4.97961901 14.0585288,5.15556706 14.116461,5.31479152 C14.1743931,5.47401598 14.35018,5.5562218 14.509092,5.49840335 Z M0.968884899,10.6130506 C1.12779685,10.5552152 1.20964342,10.3792535 1.15169432,10.220029 C1.09374522,10.0608045 0.917944609,9.97861243 0.759032656,10.0364478 C0.600120704,10.0942831 0.518274138,10.2702449 0.576223235,10.4294694 C0.634172331,10.5886938 0.809972947,10.6708859 0.968884899,10.6130506 Z M14.0682788,4.11325306 C14.2147274,4.02869844 14.2647676,3.84119986 14.1800467,3.69446326 C14.0953258,3.54772666 13.9079258,3.4973182 13.7614772,3.58187282 C13.6150286,3.66642744 13.5649885,3.85392602 13.6497094,4.00066263 C13.7344303,4.14739923 13.9218302,4.19780768 14.0682788,4.11325306 Z M1.49185943,11.4331165 C1.63830803,11.3485619 1.68834822,11.1610633 1.60362731,11.0143267 C1.51890641,10.8675901 1.3315065,10.8171816 1.1850579,10.9017363 C1.0386093,10.9862909 0.988569112,11.1737895 1.07329001,11.3205261 C1.15801092,11.4672627 1.34541082,11.5176711 1.49185943,11.4331165 Z M13.3556603,3.13866587 C13.4851979,3.02996245 13.5019141,2.83662337 13.392997,2.70683095 C13.2840798,2.57703853 13.0907739,2.55994251 12.9612362,2.66864593 C12.8316985,2.77734935 12.8149823,2.97068843 12.9238995,3.10048085 C13.0328167,3.23027327 13.2261226,3.24736929 13.3556603,3.13866587 Z M2.238883,12.5351951 C2.36842068,12.4264917 2.38513689,12.2331526 2.27621969,12.1033602 C2.1673025,11.9735677 1.97399664,11.9564717 1.84445896,12.0651751 C1.71492128,12.1738786 1.69820508,12.3672176 1.80712227,12.4970101 C1.91603946,12.6268025 2.10934532,12.6438985 2.238883,12.5351951 Z M12.5400089,2.3656204 C12.6487123,2.23608272 12.6316163,2.04277686 12.5018239,1.93385967 C12.3720315,1.82494247 12.1786924,1.84165868 12.069989,1.97119636 C11.9612856,2.10073404 11.9783816,2.2940399 12.108174,2.40295709 C12.2379664,2.51187428 12.4313055,2.49515808 12.5400089,2.3656204 Z M3.2200916,13.5538352 C3.32879502,13.4242975 3.31169901,13.2309916 3.18190659,13.1220744 C3.05211417,13.0131572 2.85877509,13.0298734 2.75007167,13.1594111 C2.64136825,13.2889488 2.65846426,13.4822547 2.78825668,13.5911719 C2.9180491,13.700089 3.11138818,13.6833728 3.2200916,13.5538352 Z M11.4962763,1.49363438 C11.5808309,1.34718578 11.5304225,1.15978587 11.3836859,1.07506497 C11.2369493,0.990344069 11.0494507,1.04038426 10.9648961,1.18683286 C10.8803414,1.33328146 10.9307499,1.52068137 11.0774865,1.60540227 C11.2242231,1.69012317 11.4117217,1.64008298 11.4962763,1.49363438 Z M4.25712132,14.1336541 C4.34167594,13.9872055 4.29126749,13.7998056 4.14453088,13.7150847 C3.99779428,13.6303638 3.8102957,13.680404 3.72574108,13.8268526 C3.64118646,13.9733012 3.69159492,14.1607011 3.83833152,14.245422 C3.98506812,14.3301429 4.1725667,14.2801027 4.25712132,14.1336541 Z M10.3731078,0.811661105 C10.4309432,0.652749152 10.3487511,0.476948537 10.1895266,0.41899944 C10.0303022,0.361050344 9.8543404,0.44289691 9.79650504,0.601808862 C9.73866968,0.760720815 9.82086179,0.93652143 9.98008625,0.994470527 C10.1393107,1.05241962 10.3152725,0.970573057 10.3731078,0.811661105 Z M5.43487714,14.5187854 C5.4927125,14.3598734 5.41052039,14.1840728 5.25129593,14.1261237 C5.09207147,14.0681746 4.91610971,14.1500212 4.85827435,14.3089331 C4.80043899,14.4678451 4.8826311,14.6436457 5.04185556,14.7015948 C5.20108003,14.7595439 5.37704178,14.6776973 5.43487714,14.5187854 Z M9.21471521,0.503037916 C9.24408948,0.336499136 9.13263018,0.177633397 8.9657639,0.148201356 C8.79889761,0.118769315 8.6398132,0.229916287 8.61043892,0.396455066 C8.58106465,0.562993845 8.69252395,0.721859584 8.85939024,0.751291625 C9.02625652,0.780723667 9.18534093,0.669576695 9.21471521,0.503037916 Z M6.72688441,14.8609381 C6.75625868,14.6943994 6.64479938,14.5355336 6.4779331,14.5061016 C6.31106681,14.4766695 6.1519824,14.5878165 6.12260812,14.7543553 C6.09323385,14.9208941 6.20469315,15.0797598 6.37155944,15.1091919 C6.53842572,15.1386239 6.69751013,15.0274769 6.72688441,14.8609381 Z M7.65498412,8.89724421 C6.97981452,8.89724421 6.43018666,8.34684227 6.43018666,7.67003811 C6.43018666,6.99323395 6.97981452,6.44283201 7.65498412,6.44283201 C8.33015372,6.44283201 8.87978158,6.99323395 8.87978158,7.67003811 C8.87978158,8.34684227 8.33015372,8.89724421 7.65498412,8.89724421 L7.65498412,8.89724421 Z M7.65498412,2.60781296 C4.86489551,2.60781296 2.6026946,4.87415582 2.6026946,7.67003811 C2.6026946,10.4659204 4.86489551,12.7322633 7.65498412,12.7322633 C10.4450727,12.7322633 12.7072736,10.4659204 12.7072736,7.67003811 C12.7072736,4.87415582 10.4450727,2.60781296 7.65498412,2.60781296 L7.65498412,2.60781296 Z M7.65498412,12.272061 C5.12240918,12.272061 3.06199365,10.2075935 3.06199365,7.67003811 C3.06199365,5.1324827 5.12240918,3.06801524 7.65498412,3.06801524 C10.1875591,3.06801524 12.2479746,5.1324827 12.2479746,7.67003811 C12.2479746,10.2075935 10.1875591,12.272061 7.65498412,12.272061 L7.65498412,12.272061 Z M7.65498412,5.36902668 C6.38640015,5.36902668 5.35848889,6.3992662 5.35848889,7.67003811 C5.35848889,8.94081003 6.38640015,9.97104955 7.65498412,9.97104955 C8.92356809,9.97104955 9.95147936,8.94081003 9.95147936,7.67003811 C9.95147936,6.3992662 8.92356809,5.36902668 7.65498412,5.36902668 L7.65498412,5.36902668 Z" id="Live-Photo-Icon" fill="#FECD14"></path>
                                    </g>
                                    <g id="HDR-Button---Off" transform="translate(57.259281, 7.056435)">
                                        <rect id="Icon-Frame" x="0" y="0" width="15.3099682" height="12.272061"></rect>
                                        <path d="M14.2309217,6.90426151 C14.7946347,6.7017725 15.2104535,6.16824465 15.2104535,5.41627411 C15.2104535,4.4268392 14.5456946,3.7843968 13.4571559,3.7843968 L11.4708406,3.7843968 L11.4708406,9.10096042 L12.2678776,9.10096042 L12.2678776,7.05213984 L13.4378653,7.05213984 L14.4017809,9.10096042 L15.3075187,9.10096042 L14.2309217,6.90426151 L14.2309217,6.90426151 Z M13.3212034,6.3590752 L12.2678776,6.3590752 L12.2678776,4.49341513 L13.3484551,4.49341513 C13.9936172,4.49341513 14.386471,4.83611243 14.386471,5.44756787 C14.3861648,6.04736485 14.0015784,6.3590752 13.3212034,6.3590752 Z M7.58762026,8.36862518 L6.68188254,8.36862518 L6.68188254,6.15566579 L5.8811712,5.3533798 L5.8811712,9.10096042 L7.66141431,9.10096042 C8.2915726,9.10096042 8.79220856,8.94387804 9.16822138,8.64720097 L8.59470997,8.07225491 C8.3420955,8.26799428 8.00925679,8.36862518 7.58762026,8.36862518 Z M2.53012535,0.341776898 C2.43275395,0.244214013 2.27506128,0.244520815 2.17830228,0.341470097 C2.08123708,0.43872618 2.08123708,0.596728965 2.17799608,0.693985048 L13.3542729,11.8922407 C13.4029586,11.9410221 13.4666481,11.9652595 13.5303375,11.9652595 C13.594027,11.9652595 13.6577165,11.9410221 13.706096,11.8925475 C13.8031612,11.7952914 13.8031612,11.6372886 13.7064022,11.5400325 L2.53012535,0.341776898 Z M9.1590354,6.03478599 L9.98577369,6.8631501 C9.99740926,6.72600982 10.0053704,6.58549472 10.0053704,6.43669598 C10.0053704,4.72290267 9.22793026,3.78409 7.66141431,3.78409 L6.91306306,3.78409 L7.64457334,4.51703884 C8.55674125,4.53851495 9.05584622,5.04412386 9.1590354,6.03478599 Z M3.3274685,5.9967426 L0.800711339,5.9967426 L0.800711339,3.7843968 L0,3.7843968 L0,9.10096042 L0.800711339,9.10096042 L0.800711339,6.73674787 L3.3274685,6.73674787 L3.3274685,9.10096042 L4.12817984,9.10096042 L4.12817984,3.7843968 L3.3274685,3.7843968 L3.3274685,5.9967426 Z" id="HDR-Icon---Off" fill="#FFFFFF"></path>
                                    </g>
                                    <g id="Flash-Button---On" transform="translate(7.348785, 7.363237)">
                                        <rect id="Icon-Frame" x="0" y="0" width="12.2479746" height="12.272061"></rect>
                                        <path d="M6.20513013,4.69989255 L7.94281153,0.222737907 C8.0052762,0.0619739079 7.79614203,-0.0638147171 7.68407306,0.0671895339 L2.6541361,5.9363027 C2.48358305,6.13511009 2.62474096,6.44283201 2.88654141,6.44283201 L5.74766828,6.44283201 C5.85545046,6.44283201 5.9295507,6.55113295 5.89066338,6.65145705 L3.88965053,11.8410048 C3.79534113,12.0852189 4.11654426,12.2723678 4.28189192,12.0692652 L9.69794629,5.40921768 C9.86084435,5.20887628 9.71846164,4.90851759 9.46064178,4.90851759 L6.34812523,4.90851759 C6.24003686,4.90882439 6.16624281,4.80021665 6.20513013,4.69989255 L6.20513013,4.69989255 Z" id="Flash-Icon" fill="#FECD14"></path>
                                    </g>
                                </g>
                            </g>
                        </g>
                    </g>
                </g>
            </g>
        </g>
    </g>
</svg>